<?xml version="1.0" standalone="no"?>
<!DOCTYPE svg PUBLIC "-//W3C//DTD SVG 20010904//EN"
 "http://www.w3.org/TR/2001/REC-SVG-20010904/DTD/svg10.dtd">
<svg version="1.0" xmlns="http://www.w3.org/2000/svg"
 width="500.000000pt" height="500.000000pt" viewBox="0 0 500.000000 500.000000"
 preserveAspectRatio="xMidYMid meet">

<g transform="translate(0.000000,500.000000) scale(0.100000,-0.100000)"
fill="#000000" stroke="none">
<path d="M1901 3358 c-5 -13 -44 -113 -86 -223 -43 -110 -101 -261 -130 -335
-28 -74 -88 -229 -133 -345 -45 -115 -115 -295 -156 -400 -40 -104 -72 -193
-69 -197 2 -5 69 -8 147 -8 l144 0 10 28 c20 48 244 695 264 762 24 77 34 90
43 59 3 -13 21 -67 40 -119 18 -52 81 -230 138 -395 58 -165 108 -308 112
-317 6 -16 23 -18 151 -18 117 0 144 3 144 14 0 8 -20 65 -45 127 l-45 112 22
26 c13 14 25 28 28 31 13 13 168 189 194 220 l29 35 26 -34 c68 -89 416 -517
425 -523 16 -11 354 -10 360 1 5 7 -391 483 -566 681 -27 30 -47 59 -44 65 2
6 138 177 302 379 165 202 299 373 299 379 0 14 -322 22 -340 9 -11 -7 -496
-605 -549 -675 -15 -21 -30 -36 -32 -34 -3 3 -5 165 -4 361 l0 357 -142 -3
-143 -3 4 -457 c2 -328 0 -458 -8 -458 -6 0 -13 12 -16 28 -7 31 1 9 -175 467
-72 187 -136 354 -142 370 -22 59 -43 70 -57 33z"/>
</g>
</svg>
